<?xml version="1.0" encoding="UTF-8"?>
<!DOCTYPE svg PUBLIC "-//W3C//DTD SVG 1.1//EN" "http://www.w3.org/Graphics/SVG/1.1/DTD/svg11.dtd">
<!-- Creator: CorelDRAW 2020 (64-Bit Evaluation Version) -->
<svg xmlns="http://www.w3.org/2000/svg" xml:space="preserve" width="210mm" height="297mm" version="1.1" style="shape-rendering:geometricPrecision; text-rendering:geometricPrecision; image-rendering:optimizeQuality; fill-rule:evenodd; clip-rule:evenodd"
viewBox="0 0 21000 29700"
 xmlns:xlink="http://www.w3.org/1999/xlink"
 xmlns:xodm="http://www.corel.com/coreldraw/odm/2003">
 <defs>
  <style type="text/css">
   <![CDATA[
    .fil1 {fill:none}
    .fil0 {fill:#FEFEFE}
   ]]>
  </style>
   <clipPath id="id0">
    <path d="M8715.3 8468.76c2575.02,0 4662.48,2061.37 4662.48,4604.2 0,2542.83 -2087.46,4604.2 -4662.48,4604.2 -2575.02,0 -4662.48,-2061.37 -4662.48,-4604.2 0,-2542.83 2087.46,-4604.2 4662.48,-4604.2z"/>
   </clipPath>
    <clipPath id="id1">
     <path d="M5994.39 10260.13l5346.74 0 0 5159.4 -5346.74 0 0 -5159.4z"/>
    </clipPath>
    <clipPath id="id2">
     <path d="M8715.3 8468.76c2575.02,0 4662.48,2061.37 4662.48,4604.2 0,2542.83 -2087.46,4604.2 -4662.48,4604.2 -2575.02,0 -4662.48,-2061.37 -4662.48,-4604.2 0,-2542.83 2087.46,-4604.2 4662.48,-4604.2z"/>
    </clipPath>
 </defs>
 <g id="Layer_x0020_1">
  <metadata id="CorelCorpID_0Corel-Layer"/>
  <path class="fil0" d="M8715.3 8468.76c2575.02,0 4662.48,2061.37 4662.48,4604.2 0,2542.83 -2087.46,4604.2 -4662.48,4604.2 -2575.02,0 -4662.48,-2061.37 -4662.48,-4604.2 0,-2542.83 2087.46,-4604.2 4662.48,-4604.2z"/>
  <g style="clip-path:url(#id0)">
   <g id="_2098622746560">
   </g>
   <g style="clip-path:url(#id1)">
    <image x="5994.39" y="10260.14" width="5346.73" height="5159.39" xlink:href="poliwangi_Images\poliwangi_ImgID1.png"/>
   </g>
   <g style="clip-path:url(#id2)">
   </g>
  </g>
  <path class="fil1" d="M8715.3 8468.76c2575.02,0 4662.48,2061.37 4662.48,4604.2 0,2542.83 -2087.46,4604.2 -4662.48,4604.2 -2575.02,0 -4662.48,-2061.37 -4662.48,-4604.2 0,-2542.83 2087.46,-4604.2 4662.48,-4604.2z"/>
 </g>
</svg>
